<svg xmlns="http://www.w3.org/2000/svg" xmlns:xlink="http://www.w3.org/1999/xlink" width="1060" height="408.2"><g transform="translate(-160 -91.79999999999998)"><path d="M308 320c17.67 0 32 17.9 32 40s-14.33 40-32 40h-96c-17.67 0-32-17.9-32-40s14.33-40 32-40z" stroke="#000" stroke-width="2" fill="#a3d977"/><use xlink:href="#a" transform="matrix(1,0,0,1,185,325) translate(45 38.6)"/><path d="M588 320c17.67 0 32 17.9 32 40s-14.33 40-32 40h-96c-17.67 0-32-17.9-32-40s14.33-40 32-40z" stroke="#000" stroke-width="2" fill="#a3d977"/><use xlink:href="#b" transform="matrix(1,0,0,1,465,325) translate(35 38.6)"/><path d="M848 120c17.67 0 32 17.9 32 40s-14.33 40-32 40h-96c-17.67 0-32-17.9-32-40s14.33-40 32-40z" stroke="#000" stroke-width="2" fill="#99d2f2"/><use xlink:href="#c" transform="matrix(1,0,0,1,725,125) translate(35 38.6)"/><path d="M1168 111.8c17.67 0 32 21.58 32 48.2 0 26.62-14.33 48.2-32 48.2h-96c-17.67 0-32-21.58-32-48.2 0-26.62 14.33-48.2 32-48.2z" stroke="#000" stroke-width="2" fill="#99d2f2"/><use xlink:href="#d" transform="matrix(1,0,0,1,1045,116.79999999999998) translate(35 14.69999999999999)"/><use xlink:href="#e" transform="matrix(1,0,0,1,1045,116.79999999999998) translate(11.524999999999999 36.29999999999999)"/><use xlink:href="#f" transform="matrix(1,0,0,1,1045,116.79999999999998) translate(23.525 36.29999999999999)"/><use xlink:href="#g" transform="matrix(1,0,0,1,1045,116.79999999999998) translate(82.475 36.29999999999999)"/><use xlink:href="#h" transform="matrix(1,0,0,1,1045,116.79999999999998) translate(23.124999999999993 57.89999999999999)"/><use xlink:href="#i" transform="matrix(1,0,0,1,1045,116.79999999999998) translate(60.025 57.89999999999999)"/><use xlink:href="#j" transform="matrix(1,0,0,1,1045,116.79999999999998) translate(91.92500000000001 57.89999999999999)"/><use xlink:href="#k" transform="matrix(1,0,0,1,1045,116.79999999999998) translate(17.599999999999994 79.5)"/><use xlink:href="#l" transform="matrix(1,0,0,1,1045,116.79999999999998) translate(81.55 79.5)"/><path d="M341 360h119" stroke="#000" stroke-width="2" fill="none"/><path d="M341 361h-1.06l.06-1-.04-1H341zM460 360l-14.27 4.64v-9.28z"/><path d="M460.06 358.97L460 360l.04 1.04-15.3 4.97v-12zm-13.33 4.3l10.03-3.27-10.03-3.26z"/><path d="M540 320V160h180" stroke="#000" stroke-width="2" fill="none"/><path d="M720 160l-14.27 4.64v-9.28z"/><path d="M720.06 158.97L720 160l.04 1.04-15.3 4.97v-12zm-13.33 4.3l10.03-3.27-10.03-3.26z"/><path d="M880 160h159" stroke="#000" stroke-width="2" fill="none"/><path d="M880 161h-.06l.06-1-.04-1h.04zM1039 160l-14.27 4.64v-9.28z"/><path d="M1040.04 159.3l-.04.7v.72l-16.27 5.3v-12.03zm-14.3 3.96l10.02-3.26-10.03-3.26z"/><path d="M720 200h480v60H720z" fill="none"/><g><use xlink:href="#m" transform="matrix(1,0,0,1,725,205) translate(172.85185185185185 30.333333333333336)"/></g><path d="M180 420h440v60H180z" fill="none"/><g><use xlink:href="#n" transform="matrix(1,0,0,1,185,425) translate(174.33333333333331 30.333333333333336)"/></g><defs><path d="M100-194c63 0 86 42 84 106H49c0 40 14 67 53 68 26 1 43-12 49-29l28 8c-11 28-37 45-77 45C44 4 14-33 15-96c1-61 26-98 85-98zm52 81c6-60-76-77-97-28-3 7-6 17-6 28h103" id="o"/><path d="M54-142c48-35 137-8 131 61C196 18 31 33 14-55l32-4c7 23 22 37 52 37 35-1 51-22 54-58 4-55-73-65-99-34H22l8-134h141v27H59" id="p"/><path d="M101-234c-31-9-42 10-38 44h38v23H63V0H32v-167H5v-23h27c-7-52 17-82 69-68v24" id="q"/><path d="M141-36C126-15 110 5 73 4 37 3 15-17 15-53c-1-64 63-63 125-63 3-35-9-54-41-54-24 1-41 7-42 31l-33-3c5-37 33-52 76-52 45 0 72 20 72 64v82c-1 20 7 32 28 27v20c-31 9-61-2-59-35zM48-53c0 20 12 33 32 33 41-3 63-29 60-74-43 2-92-5-92 41" id="r"/><path d="M155-56V0h-30v-56H8v-25l114-167h33v167h35v25h-35zm-30-156c-27 46-58 90-88 131h88v-131" id="s"/><g id="a"><use transform="matrix(0.05,0,0,0.05,0,0)" xlink:href="#o"/><use transform="matrix(0.05,0,0,0.05,10,0)" xlink:href="#p"/><use transform="matrix(0.05,0,0,0.05,20,0)" xlink:href="#q"/><use transform="matrix(0.05,0,0,0.05,25,0)" xlink:href="#r"/><use transform="matrix(0.05,0,0,0.05,35,0)" xlink:href="#s"/><use transform="matrix(0.05,0,0,0.05,45,0)" xlink:href="#s"/><use transform="matrix(0.05,0,0,0.05,55,0)" xlink:href="#q"/></g><path d="M64 0c3-98 48-159 88-221H18v-27h164v26C143-157 98-101 97 0H64" id="t"/><path d="M134-131c28 9 52 24 51 62-1 50-34 73-85 73S17-19 16-69c0-36 21-54 49-61-75-25-45-126 34-121 46 3 78 18 79 63 0 33-17 51-44 57zm-34-11c31 1 46-15 46-44 0-28-17-43-47-42-29 0-46 13-45 42 1 28 16 44 46 44zm1 122c35 0 51-18 51-52 0-30-18-46-53-46-33 0-51 17-51 47 0 34 19 51 53 51" id="u"/><path d="M85-194c31 0 48 13 60 33l-1-100h32l1 261h-30c-2-10 0-23-3-31C134-8 116 4 85 4 32 4 16-35 15-94c0-66 23-100 70-100zm9 24c-40 0-46 34-46 75 0 40 6 74 45 74 42 0 51-32 51-76 0-42-9-74-50-73" id="v"/><path d="M99-251c64 0 84 50 84 122C183-37 130 33 47-8c-14-7-20-23-25-40l30-5c6 39 69 39 84 7 9-19 16-44 16-74-10 22-31 35-62 35-49 0-73-33-73-83 0-54 28-83 82-83zm-1 141c31-1 51-18 51-49 0-36-14-67-51-67-34 0-49 23-49 58 0 34 15 58 49 58" id="w"/><g id="b"><use transform="matrix(0.05,0,0,0.05,0,0)" xlink:href="#t"/><use transform="matrix(0.05,0,0,0.05,10,0)" xlink:href="#s"/><use transform="matrix(0.05,0,0,0.05,20,0)" xlink:href="#s"/><use transform="matrix(0.05,0,0,0.05,30,0)" xlink:href="#u"/><use transform="matrix(0.05,0,0,0.05,40,0)" xlink:href="#v"/><use transform="matrix(0.05,0,0,0.05,50,0)" xlink:href="#u"/><use transform="matrix(0.05,0,0,0.05,60,0)" xlink:href="#t"/><use transform="matrix(0.05,0,0,0.05,70,0)" xlink:href="#w"/></g><path d="M115-194c53 0 69 39 70 98 0 66-23 100-70 100C84 3 66-7 56-30L54 0H23l1-261h32v101c10-23 28-34 59-34zm-8 174c40 0 45-34 45-75 0-40-5-75-45-74-42 0-51 32-51 76 0 43 10 73 51 73" id="x"/><path d="M27 0v-27h64v-190l-56 39v-29l58-41h29v221h61V0H27" id="y"/><g id="c"><use transform="matrix(0.05,0,0,0.05,0,0)" xlink:href="#x"/><use transform="matrix(0.05,0,0,0.05,10,0)" xlink:href="#p"/><use transform="matrix(0.05,0,0,0.05,20,0)" xlink:href="#p"/><use transform="matrix(0.05,0,0,0.05,30,0)" xlink:href="#y"/><use transform="matrix(0.05,0,0,0.05,40,0)" xlink:href="#t"/><use transform="matrix(0.05,0,0,0.05,50,0)" xlink:href="#t"/><use transform="matrix(0.05,0,0,0.05,60,0)" xlink:href="#y"/><use transform="matrix(0.05,0,0,0.05,70,0)" xlink:href="#r"/></g><path d="M126-127c33 6 58 20 58 59 0 88-139 92-164 29-3-8-5-16-6-25l32-3c6 27 21 44 54 44 32 0 52-15 52-46 0-38-36-46-79-43v-28c39 1 72-4 72-42 0-27-17-43-46-43-28 0-47 15-49 41l-32-3c6-42 35-63 81-64 48-1 79 21 79 65 0 36-21 52-52 59" id="z"/><path d="M101-251c68 0 85 55 85 127S166 4 100 4C33 4 14-52 14-124c0-73 17-127 87-127zm-1 229c47 0 54-49 54-102s-4-102-53-102c-51 0-55 48-55 102 0 53 5 102 54 102" id="A"/><g id="d"><use transform="matrix(0.05,0,0,0.05,0,0)" xlink:href="#w"/><use transform="matrix(0.05,0,0,0.05,10,0)" xlink:href="#v"/><use transform="matrix(0.05,0,0,0.05,20,0)" xlink:href="#s"/><use transform="matrix(0.05,0,0,0.05,30,0)" xlink:href="#x"/><use transform="matrix(0.05,0,0,0.05,40,0)" xlink:href="#z"/><use transform="matrix(0.05,0,0,0.05,50,0)" xlink:href="#u"/><use transform="matrix(0.05,0,0,0.05,60,0)" xlink:href="#A"/><use transform="matrix(0.05,0,0,0.05,70,0)" xlink:href="#s"/></g><path d="M86-200l42-18 12 35-44 11 32 37-32 21-26-44-26 44-32-21 33-37-44-11 12-35 42 18-3-48h38" id="B"/><use transform="matrix(0.05,0,0,0.05,0,0)" xlink:href="#B" id="e"/><path d="M220-157c-53 9-28 100-34 157h-49v-107c1-27-5-49-29-50C55-147 81-57 75 0H25l-1-190h47c2 12-1 28 3 38 10-53 101-56 108 0 13-22 24-43 59-42 82 1 51 116 57 194h-49v-107c-1-25-5-48-29-50" id="C"/><path d="M185-48c-13 30-37 53-82 52C43 2 14-33 14-96s30-98 90-98c62 0 83 45 84 108H66c0 31 8 55 39 56 18 0 30-7 34-22zm-45-69c5-46-57-63-70-21-2 6-4 13-4 21h74" id="D"/><path d="M135-150c-39-12-60 13-60 57V0H25l-1-190h47c2 13-1 29 3 40 6-28 27-53 61-41v41" id="E"/><path d="M195-6C206 82 75 100 31 46c-4-6-6-13-8-21l49-6c3 16 16 24 34 25 40 0 42-37 40-79-11 22-30 35-61 35-53 0-70-43-70-97 0-56 18-96 73-97 30 0 46 14 59 34l2-30h47zm-90-29c32 0 41-27 41-63 0-35-9-62-40-62-32 0-39 29-40 63 0 36 9 62 39 62" id="F"/><g id="f"><use transform="matrix(0.05,0,0,0.05,0,0)" xlink:href="#C"/><use transform="matrix(0.05,0,0,0.05,16,0)" xlink:href="#D"/><use transform="matrix(0.05,0,0,0.05,26,0)" xlink:href="#E"/><use transform="matrix(0.05,0,0,0.05,33,0)" xlink:href="#F"/><use transform="matrix(0.05,0,0,0.05,43.95,0)" xlink:href="#D"/></g><path d="M133-34C117-15 103 5 69 4 32 3 11-16 11-54c-1-60 55-63 116-61 1-26-3-47-28-47-18 1-26 9-28 27l-52-2c7-38 36-58 82-57s74 22 75 68l1 82c-1 14 12 18 25 15v27c-30 8-71 5-69-32zm-48 3c29 0 43-24 42-57-32 0-66-3-65 30 0 17 8 27 23 27" id="G"/><path d="M147 0L96-86 75-71V0H25v-261h50v150l67-79h53l-66 74L201 0h-54" id="H"/><path d="M137-138c1-29-70-34-71-4 15 46 118 7 119 86 1 83-164 76-172 9l43-7c4 19 20 25 44 25 33 8 57-30 24-41C81-84 22-81 20-136c-2-80 154-74 161-7" id="I"/><g id="g"><use transform="matrix(0.05,0,0,0.05,0,0)" xlink:href="#C"/><use transform="matrix(0.05,0,0,0.05,16,0)" xlink:href="#G"/><use transform="matrix(0.05,0,0,0.05,26,0)" xlink:href="#H"/><use transform="matrix(0.05,0,0,0.05,36,0)" xlink:href="#D"/><use transform="matrix(0.05,0,0,0.05,46,0)" xlink:href="#I"/></g><path d="M115-3C79 11 28 4 28-45v-112H4v-33h27l15-45h31v45h36v33H77v99c-1 23 16 31 38 25v30" id="J"/><path d="M114-157C55-157 80-60 75 0H25v-261h50l-1 109c12-26 28-41 61-42 86-1 58 113 63 194h-50c-7-57 23-157-34-157" id="K"/><path d="M25-224v-37h50v37H25zM25 0v-190h50V0H25" id="L"/><g id="h"><use transform="matrix(0.05,0,0,0.05,0,0)" xlink:href="#J"/><use transform="matrix(0.05,0,0,0.05,5.95,0)" xlink:href="#K"/><use transform="matrix(0.05,0,0,0.05,16.900000000000002,0)" xlink:href="#L"/><use transform="matrix(0.05,0,0,0.05,21.900000000000002,0)" xlink:href="#I"/></g><g id="i"><use transform="matrix(0.05,0,0,0.05,0,0)" xlink:href="#J"/><use transform="matrix(0.05,0,0,0.05,5.95,0)" xlink:href="#K"/><use transform="matrix(0.05,0,0,0.05,16.900000000000002,0)" xlink:href="#D"/></g><path d="M135-194c87-1 58 113 63 194h-50c-7-57 23-157-34-157-59 0-34 97-39 157H25l-1-190h47c2 12-1 28 3 38 12-26 28-41 61-42" id="M"/><path d="M231 0h-52l-39-155L100 0H48L-1-190h46L77-45c9-52 24-97 36-145h53l37 145 32-145h46" id="N"/><g id="j"><use transform="matrix(0.05,0,0,0.05,0,0)" xlink:href="#M"/><use transform="matrix(0.05,0,0,0.05,10.950000000000001,0)" xlink:href="#D"/><use transform="matrix(0.05,0,0,0.05,20.950000000000003,0)" xlink:href="#N"/></g><g id="k"><use transform="matrix(0.05,0,0,0.05,0,0)" xlink:href="#C"/><use transform="matrix(0.05,0,0,0.05,16,0)" xlink:href="#G"/><use transform="matrix(0.05,0,0,0.05,26,0)" xlink:href="#I"/><use transform="matrix(0.05,0,0,0.05,36,0)" xlink:href="#J"/><use transform="matrix(0.05,0,0,0.05,41.95,0)" xlink:href="#D"/><use transform="matrix(0.05,0,0,0.05,51.95,0)" xlink:href="#E"/></g><path d="M186 0v-106H76V0H24v-248h52v99h110v-99h50V0h-50" id="O"/><path d="M24 0v-248h195v40H76v63h132v40H76v65h150V0H24" id="P"/><path d="M199 0l-22-63H83L61 0H9l90-248h61L250 0h-51zm-33-102l-36-108c-10 38-24 72-36 108h72" id="Q"/><path d="M24-248c120-7 223 5 221 122C244-46 201 0 124 0H24v-248zM76-40c74 7 117-18 117-86 0-67-45-88-117-82v168" id="R"/><g id="l"><use transform="matrix(0.05,0,0,0.05,0,0)" xlink:href="#O"/><use transform="matrix(0.05,0,0,0.05,12.950000000000001,0)" xlink:href="#P"/><use transform="matrix(0.05,0,0,0.05,24.950000000000003,0)" xlink:href="#Q"/><use transform="matrix(0.05,0,0,0.05,37.900000000000006,0)" xlink:href="#R"/></g><path fill="#0c7cba" d="M210-169c-67 3-38 105-44 169h-31v-121c0-29-5-50-35-48C34-165 62-65 56 0H25l-1-190h30c1 10-1 24 2 32 10-44 99-50 107 0 11-21 27-35 58-36 85-2 47 119 55 194h-31v-121c0-29-5-49-35-48" id="S"/><path fill="#0c7cba" d="M179-190L93 31C79 59 56 82 12 73V49c39 6 53-20 64-50L1-190h34L92-34l54-156h33" id="T"/><path fill="#0c7cba" d="M0 4l72-265h28L28 4H0" id="U"/><path fill="#0c7cba" d="M115-194c53 0 69 39 70 98 0 66-23 100-70 100C84 3 66-7 56-30L54 0H23l1-261h32v101c10-23 28-34 59-34zm-8 174c40 0 45-34 45-75 0-40-5-75-45-74-42 0-51 32-51 76 0 43 10 73 51 73" id="V"/><path fill="#0c7cba" d="M114-163C36-179 61-72 57 0H25l-1-190h30c1 12-1 29 2 39 6-27 23-49 58-41v29" id="W"/><path fill="#0c7cba" d="M141-36C126-15 110 5 73 4 37 3 15-17 15-53c-1-64 63-63 125-63 3-35-9-54-41-54-24 1-41 7-42 31l-33-3c5-37 33-52 76-52 45 0 72 20 72 64v82c-1 20 7 32 28 27v20c-31 9-61-2-59-35zM48-53c0 20 12 33 32 33 41-3 63-29 60-74-43 2-92-5-92 41" id="X"/><path fill="#0c7cba" d="M117-194c89-4 53 116 60 194h-32v-121c0-31-8-49-39-48C34-167 62-67 57 0H25l-1-190h30c1 10-1 24 2 32 11-22 29-35 61-36" id="Y"/><path fill="#0c7cba" d="M96-169c-40 0-48 33-48 73s9 75 48 75c24 0 41-14 43-38l32 2c-6 37-31 61-74 61-59 0-76-41-82-99-10-93 101-131 147-64 4 7 5 14 7 22l-32 3c-4-21-16-35-41-35" id="Z"/><path fill="#0c7cba" d="M106-169C34-169 62-67 57 0H25v-261h32l-1 103c12-21 28-36 61-36 89 0 53 116 60 194h-32v-121c2-32-8-49-39-48" id="aa"/><g id="m"><use transform="matrix(0.07407407407407408,0,0,0.07407407407407408,0,0)" xlink:href="#S"/><use transform="matrix(0.07407407407407408,0,0,0.07407407407407408,22.148148148148152,0)" xlink:href="#T"/><use transform="matrix(0.07407407407407408,0,0,0.07407407407407408,35.48148148148149,0)" xlink:href="#U"/><use transform="matrix(0.07407407407407408,0,0,0.07407407407407408,42.8888888888889,0)" xlink:href="#V"/><use transform="matrix(0.07407407407407408,0,0,0.07407407407407408,57.70370370370372,0)" xlink:href="#W"/><use transform="matrix(0.07407407407407408,0,0,0.07407407407407408,66.51851851851853,0)" xlink:href="#X"/><use transform="matrix(0.07407407407407408,0,0,0.07407407407407408,81.33333333333334,0)" xlink:href="#Y"/><use transform="matrix(0.07407407407407408,0,0,0.07407407407407408,96.14814814814814,0)" xlink:href="#Z"/><use transform="matrix(0.07407407407407408,0,0,0.07407407407407408,109.4814814814815,0)" xlink:href="#aa"/></g><path fill="#19967d" d="M210-169c-67 3-38 105-44 169h-31v-121c0-29-5-50-35-48C34-165 62-65 56 0H25l-1-190h30c1 10-1 24 2 32 10-44 99-50 107 0 11-21 27-35 58-36 85-2 47 119 55 194h-31v-121c0-29-5-49-35-48" id="ab"/><path fill="#19967d" d="M141-36C126-15 110 5 73 4 37 3 15-17 15-53c-1-64 63-63 125-63 3-35-9-54-41-54-24 1-41 7-42 31l-33-3c5-37 33-52 76-52 45 0 72 20 72 64v82c-1 20 7 32 28 27v20c-31 9-61-2-59-35zM48-53c0 20 12 33 32 33 41-3 63-29 60-74-43 2-92-5-92 41" id="ac"/><path fill="#19967d" d="M135-143c-3-34-86-38-87 0 15 53 115 12 119 90S17 21 10-45l28-5c4 36 97 45 98 0-10-56-113-15-118-90-4-57 82-63 122-42 12 7 21 19 24 35" id="ad"/><path fill="#19967d" d="M59-47c-2 24 18 29 38 22v24C64 9 27 4 27-40v-127H5v-23h24l9-43h21v43h35v23H59v120" id="ae"/><path fill="#19967d" d="M100-194c63 0 86 42 84 106H49c0 40 14 67 53 68 26 1 43-12 49-29l28 8c-11 28-37 45-77 45C44 4 14-33 15-96c1-61 26-98 85-98zm52 81c6-60-76-77-97-28-3 7-6 17-6 28h103" id="af"/><path fill="#19967d" d="M114-163C36-179 61-72 57 0H25l-1-190h30c1 12-1 29 2 39 6-27 23-49 58-41v29" id="ag"/><g id="n"><use transform="matrix(0.07407407407407408,0,0,0.07407407407407408,0,0)" xlink:href="#ab"/><use transform="matrix(0.07407407407407408,0,0,0.07407407407407408,22.148148148148152,0)" xlink:href="#ac"/><use transform="matrix(0.07407407407407408,0,0,0.07407407407407408,36.96296296296297,0)" xlink:href="#ad"/><use transform="matrix(0.07407407407407408,0,0,0.07407407407407408,50.296296296296305,0)" xlink:href="#ae"/><use transform="matrix(0.07407407407407408,0,0,0.07407407407407408,57.70370370370371,0)" xlink:href="#af"/><use transform="matrix(0.07407407407407408,0,0,0.07407407407407408,72.51851851851853,0)" xlink:href="#ag"/></g></defs></g></svg>